<svg width="512" height="228" version="1.1" xmlns="http://www.w3.org/2000/svg" desc="Created with imagetracer.js version 1.2.5" ><path fill="rgb(0,0,0)" stroke="rgb(0,0,0)" stroke-width="1" opacity="1" d="M 0 0 L 225.5 0 L 226 2.5 L 227 6.5 L 226 9 L 202.5 18 L 199.5 18 L 173.5 27 Q 159.2 33.2 150 44.5 Q 140.9 54.4 137 69.5 L 135 80.5 L 135 94.5 L 139 114.5 L 144 127.5 Q 151.4 143.1 163.5 154 L 166 155.5 L 145.5 186 L 96.5 167 L 83.5 165 L 76 171.5 L 69 191 L 72.5 192 L 79.5 182 Q 82.2 179.2 88.5 180 L 144 201.5 L 139.5 202 L 128.5 198 L 127.5 199 L 44 199 L 44 228 L 0 228 L 0 0 Z M 200 45 L 198 46 L 194 51 Q 193 56 196 59 L 200 61 L 206 60 L 208 57 L 207 48 L 200 45 Z M 109 89 L 96 93 L 91 96 Q 82 101 80 112 L 83 124 L 90 130 L 97 133 L 110 134 L 111 135 L 123 135 L 130 138 L 134 145 Q 135 151 131 153 Q 126 158 118 159 Q 105 161 100 156 L 96 149 L 92 150 L 96 162 L 104 167 L 122 166 L 140 157 Q 145 153 147 145 L 147 139 L 142 129 L 134 123 L 124 121 L 105 120 L 97 116 L 94 113 L 95 105 Q 100 98 111 96 Q 121 95 125 100 L 126 103 Q 127 107 133 106 L 129 95 Q 124 86 109 89 Z " /><path fill="rgb(0,0,0)" stroke="rgb(0,0,0)" stroke-width="1" opacity="1" d="M 229.5 0 L 512 0 L 512 228 L 424.5 228 L 424 226 L 421.5 226 L 413.5 224 L 411 221.5 L 407 208.5 L 407 204.5 L 404.5 200 L 402.5 199 L 157.5 199 L 156 202 L 153 201.5 L 178.5 164 L 190.5 169 L 210.5 171 L 211.5 170 L 220.5 170 L 232.5 166 L 239.5 162 L 247.5 162 L 264.5 166 L 271.5 166 L 289.5 170 L 302.5 171 L 308.5 173 L 327.5 175 L 338.5 178 L 357.5 180 L 368.5 183 L 375.5 183 L 405 188 L 410 211.5 L 414.5 222 Q 418.5 225.5 427.5 224 L 438.5 222 L 440 220.5 L 438.5 217 L 434.5 218 L 430.5 217 L 426 212.5 L 421 192.5 L 420 181.5 L 417.5 176 L 391.5 171 L 384.5 171 L 367.5 167 L 360.5 167 L 343.5 163 L 336.5 163 L 324.5 160 L 294.5 156 L 288.5 154 L 264.5 151 L 258 148.5 Q 267.7 137.7 272 121.5 L 273 116.5 L 273 91.5 Q 266.7 55.3 243.5 36 Q 233 27 218 22.5 L 224.5 21 L 232 15.5 L 233 10.5 L 229.5 0 Z M 352 67 L 348 70 L 343 75 L 341 86 L 340 87 L 332 85 L 329 92 L 339 94 L 334 120 L 334 126 L 330 142 Q 330 149 333 154 L 342 160 L 351 162 L 360 161 L 365 158 L 364 154 L 361 155 L 353 155 L 352 154 Q 348 155 349 153 L 348 153 L 345 149 L 345 141 L 353 97 L 370 100 L 372 93 L 355 90 L 357 75 L 359 70 Q 357 66 352 67 Z M 396 73 L 393 74 L 389 79 L 390 87 Q 392 93 401 91 Q 406 89 404 79 Q 402 74 396 73 Z M 275 78 L 273 82 Q 274 84 279 83 L 282 87 L 283 91 L 278 116 L 278 122 L 275 132 L 273 149 L 287 151 L 296 99 L 306 93 Q 316 92 320 98 Q 322 97 321 100 L 329 96 L 327 91 L 318 84 Q 304 82 298 88 L 296 86 L 289 80 L 275 78 Z M 375 95 L 375 99 L 383 101 L 386 106 L 386 113 L 383 124 L 382 135 L 378 151 L 378 157 L 376 166 L 390 168 L 400 116 L 400 105 L 399 103 Q 396 98 391 97 L 375 95 Z M 486 98 L 438 186 L 439 191 L 447 195 L 448 192 L 445 191 Q 444 185 447 183 L 472 145 L 472 143 L 494 109 L 495 105 L 486 98 Z M 407 99 L 405 103 L 412 105 L 414 109 L 414 120 L 404 170 L 418 173 L 420 169 L 421 158 L 429 119 L 437 114 Q 449 114 454 121 L 461 117 L 459 112 Q 455 107 449 105 Q 435 103 430 110 L 429 108 L 423 102 L 407 99 Z M 433 194 L 428 201 L 429 207 Q 431 212 439 210 L 442 207 L 443 203 L 441 197 Q 439 193 433 194 Z " /><path fill="rgb(0,0,0)" stroke="rgb(0,0,0)" stroke-width="1" opacity="1" d="M 200.5 32 L 213.5 32 L 224.5 35 L 240 45 L 241.5 48 L 243 48 Q 241.5 51.7 244.5 51 L 252 60.5 L 261 80.5 L 264 95.5 L 264 112.5 L 259 129.5 L 247.5 144 L 231.5 152 Q 224.8 154.3 214.5 153 Q 193.4 147.6 182 132.5 L 169 109.5 L 165 95.5 L 164 74.5 L 168 58.5 Q 172.3 48.8 179.5 42 Q 187.5 34.5 200.5 32 Z M 220 43 L 216 48 L 217 55 L 222 58 L 228 57 L 230 54 L 229 47 Q 227 42 220 43 Z " /><path fill="rgb(228,138,172)" stroke="rgb(228,138,172)" stroke-width="1" opacity="1" d="M 226 0 L 230 1.5 L 233 13.5 L 228.5 19 L 218 22.5 Q 239.6 28.9 252 44.5 L 264 62.5 L 272 84.5 Q 270.5 90 273 91.5 L 273 116.5 Q 269.2 136.2 258 148.5 L 264.5 151 L 288.5 154 L 306.5 158 L 312.5 158 L 336.5 163 L 343.5 163 L 360.5 167 L 367.5 167 L 373.5 169 L 391.5 171 L 409.5 175 L 415.5 175 L 419 177.5 L 421 191.5 L 420 191.5 L 417 177 L 389.5 173 L 383.5 171 L 370.5 170 L 359.5 167 L 340.5 165 L 329.5 162 L 322.5 162 L 304.5 158 L 298.5 158 L 273.5 153 L 261.5 152 L 255 149.5 Q 264.3 140.8 269 127.5 L 272 114.5 L 272 93.5 L 269 78.5 L 260 57.5 Q 251.9 44.6 240.5 35 L 225.5 26 L 216 24 Q 214.9 21.3 217.5 22 L 231 15.5 L 231 9.5 L 228.5 2 Q 229.2 9.2 224.5 11 L 197.5 21 L 176.5 27 Q 160 33.5 150 46.5 L 145 53.5 L 139 66.5 L 137 77.5 L 137 98.5 L 140 113.5 L 148 132.5 Q 154.8 145.2 165.5 154 Q 168.5 153.1 167 157.5 L 146.5 187 L 135.5 184 L 95.5 168 L 85.5 166 L 78 170.5 L 70 189.5 L 73 190 Q 73.9 184.1 78.5 181 L 82.5 180 L 82.5 181 L 76 185.5 L 72.5 192 L 69 191 L 76 171.5 L 81.5 166 L 88.5 165 L 145.5 186 L 166 155.5 L 157 147.5 Q 145.1 133.9 139 114.5 L 135 94.5 L 135 80.5 L 137 69.5 L 144 52.5 L 158.5 36 L 173.5 27 L 199.5 18 L 202.5 18 L 226 9 L 227 3.5 L 226 0 Z " /><path fill="rgb(228,138,172)" stroke="rgb(228,138,172)" stroke-width="1" opacity="1" d="M 198.5 31 L 216.5 31 L 222.5 33 Q 237.7 39.3 247 51.5 Q 257.9 64.6 263 83.5 L 265 92.5 L 265 114.5 L 260 130.5 L 251 143 L 242.5 149 L 232.5 153 Q 225 155.5 213.5 154 L 197.5 148 L 183 135.5 L 175 124.5 L 166 104.5 L 163 88.5 L 163 72.5 L 165 62.5 L 170 51.5 L 181.5 39 Q 188.3 33.3 198.5 31 Z M 201 32 Q 188 35 180 42 Q 172 49 168 59 L 164 75 L 165 96 L 169 110 L 182 133 Q 193 148 215 153 Q 225 154 232 152 L 248 144 L 259 130 L 264 113 L 264 96 L 261 81 L 252 61 L 245 51 Q 242 52 243 48 L 242 48 L 240 45 L 225 35 L 214 32 L 201 32 Z " /><path fill="rgb(228,138,172)" stroke="rgb(228,138,172)" stroke-width="1" opacity="1" d="M 219.5 43 Q 227.5 41.5 229 46.5 L 230 53.5 L 227.5 57 L 221.5 58 L 217 54.5 L 217.5 53 Q 218.5 58 225.5 57 Q 228.8 55.3 229 50.5 L 224.5 44 Q 219.3 42.8 218 45.5 L 216.5 52 L 216 47.5 L 219.5 43 Z " /><path fill="rgb(228,138,172)" stroke="rgb(228,138,172)" stroke-width="1" opacity="1" d="M 199.5 45 L 207 48 L 208 56.5 L 205.5 60 L 199.5 61 L 196 58.5 Q 193.3 56.2 194 50.5 L 197.5 46 L 199.5 45 Z M 198 47 L 195 51 L 196 57 L 201 60 L 205 59 L 207 56 L 205 48 Q 203 46 198 47 Z " /><path fill="rgb(228,138,172)" stroke="rgb(228,138,172)" stroke-width="1" opacity="1" d="M 351.5 67 Q 357.3 66.2 359 69.5 L 357 74.5 L 355 90 L 372 93 L 369.5 100 L 353 97 L 345 140.5 L 345 148.5 L 347.5 153 L 349 152.5 Q 348.2 155.1 351.5 154 L 352.5 155 L 360.5 155 L 363.5 154 L 365 157.5 L 359.5 161 L 350.5 162 L 341.5 160 L 333 153.5 Q 329.8 149.2 330 141.5 L 334 125.5 L 334 119.5 L 339 94 L 329 92 L 331.5 85 L 339.5 87 L 341 85.5 L 341 81.5 L 344 73.5 L 343.5 72 L 344.5 73 L 347.5 70 L 351.5 67 Z M 353 68 L 350 70 L 343 78 L 342 88 L 336 88 L 335 87 L 331 87 L 331 92 L 339 92 L 340 94 L 337 117 L 332 139 Q 331 148 334 153 L 340 158 L 348 160 Q 357 161 362 158 Q 365 159 364 156 L 359 157 L 349 155 Q 344 152 343 146 L 352 96 L 360 96 L 367 98 Q 372 100 370 94 L 364 92 Q 356 93 353 91 L 357 69 L 353 68 Z " /><path fill="rgb(228,138,172)" stroke="rgb(228,138,172)" stroke-width="1" opacity="1" d="M 395.5 73 Q 401.9 73.7 404 78.5 Q 406.3 88.8 400.5 91 Q 391.5 92.5 390 86.5 L 389 78.5 L 392.5 74 L 395.5 73 Z M 394 75 L 390 79 L 391 87 L 397 90 L 401 89 Q 405 87 403 80 L 399 75 L 394 75 Z " /><path fill="rgb(228,138,172)" stroke="rgb(228,138,172)" stroke-width="1" opacity="1" d="M 274.5 78 L 288.5 80 L 296 85.5 L 297.5 88 Q 303.8 82.3 317.5 84 L 327 90.5 L 329 95.5 L 321 100 Q 322.1 97.3 319.5 98 Q 315.8 92.2 305.5 93 L 296 98.5 L 287 151 L 273 149 L 275 131.5 L 278 121.5 L 278 115.5 L 283 90.5 L 282 86.5 L 278.5 83 Q 274 84 273 81.5 L 274.5 78 Z M 274 79 L 274 81 L 281 83 L 284 89 L 284 96 L 282 101 L 282 107 L 277 129 L 277 136 L 274 148 L 286 150 L 295 98 L 304 92 Q 317 90 322 98 L 327 96 L 324 88 L 316 85 L 308 85 L 296 90 L 295 86 L 286 81 L 274 79 Z " /><path fill="rgb(228,138,172)" stroke="rgb(228,138,172)" stroke-width="1" opacity="1" d="M 108.5 89 Q 124.3 86.3 129 94.5 L 133 106 Q 127.4 107 126 102.5 L 124.5 100 L 117 96.5 L 120.5 96 L 131.5 105 L 131 103.5 Q 130.3 95.3 124.5 92 Q 120.1 88.9 111.5 90 L 96.5 94 L 85 102.5 Q 80.3 107.3 82 118.5 L 88.5 128 L 97.5 132 L 123.5 134 L 133 139.5 Q 135.7 141.8 135 147.5 Q 133.6 153.6 128.5 156 L 115.5 161 L 107.5 161 Q 100.1 158.4 96 152.5 Q 96.7 149.9 94 151 Q 94.6 159.8 100.5 164 Q 104.8 167.7 114.5 166 L 129.5 162 Q 137.9 158.4 143 151.5 Q 146.4 146.4 145 136.5 Q 143.5 130 138.5 127 L 128.5 123 L 107.5 122 Q 99.8 120.8 95 116.5 Q 92 113.5 92 107.5 L 97.5 100 Q 103.7 94.7 115.5 95 L 115.5 96 Q 101.2 96.2 95 104.5 L 94 112.5 L 96.5 116 L 104.5 120 L 123.5 121 L 133.5 123 L 142 128.5 L 147 138.5 L 147 144.5 Q 145.3 152.8 139.5 157 L 121.5 166 L 103.5 167 L 96 161.5 L 92 150 L 95.5 149 L 100 156 Q 105.1 160.7 117.5 159 Q 126.1 157.6 131 152.5 Q 134.6 150.6 134 144.5 L 129.5 138 L 122.5 135 L 110.5 135 L 109.5 134 L 96.5 133 L 89.5 130 L 83 123.5 L 80 111.5 Q 82.3 100.8 90.5 96 L 95.5 93 L 108.5 89 Z " /><path fill="rgb(228,138,172)" stroke="rgb(228,138,172)" stroke-width="1" opacity="1" d="M 375 95 L 390.5 97 Q 396.3 98.3 399 102.5 L 400 104.5 L 400 115.5 L 390 168 L 376 166 L 378 156.5 L 378 150.5 L 382 134.5 L 383 123.5 L 386 112.5 L 386 105.5 L 382.5 101 L 375 99 L 375 95 Z M 378 96 L 376 98 L 384 100 L 387 106 L 386 121 L 377 165 L 389 167 L 395 137 L 395 131 L 399 116 L 399 105 L 398 103 L 389 98 L 378 96 Z " /><path fill="rgb(228,138,172)" stroke="rgb(228,138,172)" stroke-width="1" opacity="1" d="M 485.5 98 L 495 104.5 L 494 108.5 L 472 142.5 L 472 144.5 L 447 182.5 Q 444.3 184.8 445 190.5 L 448 192 L 446.5 195 L 439 191 L 438 185.5 L 485.5 98 Z M 485 100 L 443 178 L 439 186 L 439 189 L 442 190 L 444 192 L 443 190 L 447 181 L 494 106 L 485 100 Z " /><path fill="rgb(228,138,172)" stroke="rgb(228,138,172)" stroke-width="1" opacity="1" d="M 406.5 99 L 422.5 102 L 429 107.5 L 429.5 110 Q 434.7 103.2 448.5 105 Q 455.4 106.5 459 111.5 L 461 116.5 L 453.5 121 Q 448.6 113.9 437 113.5 L 442.5 113 L 447.5 114 L 453.5 119 L 455.5 119 L 460 116.5 L 454.5 109 Q 449.7 104.8 439.5 106 L 428 111 Q 427.6 106.3 423.5 104 L 412.5 101 L 407.5 101 L 407.5 102 L 414 105 Q 417 108.3 416 116.5 L 412 132.5 L 412 138.5 L 406 169 L 418 171 L 419 161.5 L 421 156.5 L 421 149.5 L 425 133.5 L 426 122.5 L 427 118.5 L 429.5 116 Q 430.9 113.4 435.5 114 L 435.5 115 L 429 118.5 L 421 157.5 L 420 168.5 L 417.5 173 L 404 169.5 L 414 119.5 L 414 108.5 L 411.5 105 L 405 102.5 L 406.5 99 Z " /><path fill="rgb(228,138,172)" stroke="rgb(228,138,172)" stroke-width="1" opacity="1" d="M 240.5 160 L 406 187 L 409 202.5 L 412 210.5 L 412 214.5 L 416.5 222 Q 419.7 224.3 426.5 223 L 439 219.5 Q 428 220.5 425 213.5 Q 421.3 205.2 421 193.5 L 422 193.5 L 425 210.5 L 430.5 217 L 434.5 218 L 438.5 217 L 440 220.5 L 438.5 222 L 427.5 224 L 418.5 224 L 413 220.5 L 405 188 L 375.5 183 L 368.5 183 L 357.5 180 L 338.5 178 L 327.5 175 L 308.5 173 L 302.5 171 L 289.5 170 L 271.5 166 L 264.5 166 L 247.5 162 L 239.5 162 L 232.5 166 L 220.5 170 L 203.5 171 L 202.5 170 L 190.5 169 L 178.5 164 L 153 203 L 144.5 202 L 89 180.5 L 93.5 180 L 145.5 201 L 151.5 202 L 177.5 163 L 198.5 169 L 217.5 169 L 229.5 166 L 240.5 160 Z " /><path fill="rgb(228,138,172)" stroke="rgb(228,138,172)" stroke-width="1" opacity="1" d="M 84.5 179 L 88 179.5 L 84.5 180 L 84.5 179 Z " /><path fill="rgb(228,138,172)" stroke="rgb(228,138,172)" stroke-width="1" opacity="1" d="M 432.5 194 Q 439 193 441 196.5 L 443 202.5 L 442 206.5 L 438.5 210 Q 430.5 211.5 429 206.5 L 428 200.5 L 432.5 194 Z M 434 195 L 429 202 L 430 206 Q 431 210 439 209 L 442 203 L 441 199 Q 440 194 434 195 Z " /><path fill="rgb(228,138,172)" stroke="rgb(228,138,172)" stroke-width="1" opacity="1" d="M 128.5 198 L 142 202.5 L 139.5 203 L 131.5 200 L 44 199.5 L 127.5 199 L 128.5 198 Z " /><path fill="rgb(228,138,172)" stroke="rgb(228,138,172)" stroke-width="1" opacity="1" d="M 157.5 199 L 402.5 199 L 406 201.5 Q 407.2 215.3 413.5 224 L 424 226 L 423.5 228 L 45.5 228 L 45.5 227 L 306 226.5 L 305.5 225 L 309 225.5 L 308.5 227 L 408.5 227 L 409.5 226 Q 411.3 228.8 417.5 227 L 417.5 226 L 414.5 226 L 409 220.5 L 404 201 L 243.5 201 L 240.5 200 L 238.5 200 L 157.5 200 L 157 201.5 L 155 202.5 L 157.5 199 Z " /><path fill="rgb(233,0,254)" stroke="rgb(233,0,254)" stroke-width="1" opacity="1" d="M 227.5 1 L 229 3.5 L 228 3.5 L 227.5 1 Z " /><path fill="rgb(233,0,254)" stroke="rgb(233,0,254)" stroke-width="1" opacity="1" d="M 230.5 15 L 229.5 17 L 230.5 15 Z " /><path fill="rgb(233,0,254)" stroke="rgb(233,0,254)" stroke-width="1" opacity="1" d="M 209.5 16 L 208.5 18 L 209.5 16 Z " /><path fill="rgb(233,0,254)" stroke="rgb(233,0,254)" stroke-width="1" opacity="1" d="M 225.5 26 L 224.5 28 L 225.5 26 Z " /><path fill="rgb(233,0,254)" stroke="rgb(233,0,254)" stroke-width="1" opacity="1" d="M 236.5 40 L 237.5 42 L 236.5 40 Z " /><path fill="rgb(233,0,254)" stroke="rgb(233,0,254)" stroke-width="1" opacity="1" d="M 224.5 44 L 225.5 46 L 224.5 44 Z " /><path fill="rgb(233,0,254)" stroke="rgb(233,0,254)" stroke-width="1" opacity="1" d="M 221.5 56 L 226 56.5 L 221.5 57 L 221.5 56 Z " /><path fill="rgb(233,0,254)" stroke="rgb(233,0,254)" stroke-width="1" opacity="1" d="M 205.5 57 L 204.5 59 L 205.5 57 Z " /><path fill="rgb(233,0,254)" stroke="rgb(233,0,254)" stroke-width="1" opacity="1" d="M 274 79 L 277 79.5 L 274 81 L 274 79 Z " /><path fill="rgb(233,0,254)" stroke="rgb(233,0,254)" stroke-width="1" opacity="1" d="M 282.5 81 Q 287.3 79.7 286 83 Q 281.8 83 282.5 81 Z " /><path fill="rgb(233,0,254)" stroke="rgb(233,0,254)" stroke-width="1" opacity="1" d="M 279.5 82 L 282 83.5 L 280.5 83 L 279.5 82 Z " /><path fill="rgb(233,0,254)" stroke="rgb(233,0,254)" stroke-width="1" opacity="1" d="M 290.5 83 L 295 85.5 L 294.5 88 L 291.5 84 L 290 84.5 L 290.5 86 L 288 84.5 L 290.5 83 Z " /><path fill="rgb(233,0,254)" stroke="rgb(233,0,254)" stroke-width="1" opacity="1" d="M 307.5 85 L 310 85.5 L 307.5 86 L 307.5 85 Z " /><path fill="rgb(233,0,254)" stroke="rgb(233,0,254)" stroke-width="1" opacity="1" d="M 314.5 85 L 322 87.5 L 319.5 88 L 314.5 86 L 314.5 85 Z " /><path fill="rgb(233,0,254)" stroke="rgb(233,0,254)" stroke-width="1" opacity="1" d="M 302.5 87 L 307 87.5 L 299.5 89 L 299.5 88 L 302.5 87 Z " /><path fill="rgb(233,0,254)" stroke="rgb(233,0,254)" stroke-width="1" opacity="1" d="M 324.5 90 L 326 92.5 L 325 92.5 L 324.5 90 Z " /><path fill="rgb(233,0,254)" stroke="rgb(233,0,254)" stroke-width="1" opacity="1" d="M 312.5 91 L 320 95.5 L 317.5 94 Q 312.5 93.8 312.5 91 Z " /><path fill="rgb(233,0,254)" stroke="rgb(233,0,254)" stroke-width="1" opacity="1" d="M 339.5 92 L 340.5 94 L 339.5 92 Z " /><path fill="rgb(233,0,254)" stroke="rgb(233,0,254)" stroke-width="1" opacity="1" d="M 299.5 93 L 298.5 95 L 299.5 93 Z " /><path fill="rgb(233,0,254)" stroke="rgb(233,0,254)" stroke-width="1" opacity="1" d="M 116.5 95 L 119 95.5 L 116.5 96 L 116.5 95 Z " /><path fill="rgb(233,0,254)" stroke="rgb(233,0,254)" stroke-width="1" opacity="1" d="M 296.5 95 L 295.5 97 L 296.5 95 Z " /><path fill="rgb(233,0,254)" stroke="rgb(233,0,254)" stroke-width="1" opacity="1" d="M 293 98 Q 296.3 96.7 295 101.5 L 294 101.5 L 293 98 Z " /><path fill="rgb(233,0,254)" stroke="rgb(233,0,254)" stroke-width="1" opacity="1" d="M 479.5 111 L 479 112.5 L 478.5 114 L 478 112.5 L 479.5 111 Z " /><path fill="rgb(233,0,254)" stroke="rgb(233,0,254)" stroke-width="1" opacity="1" d="M 279.5 117 L 280 120.5 L 279 120.5 L 279.5 117 Z " /><path fill="rgb(233,0,254)" stroke="rgb(233,0,254)" stroke-width="1" opacity="1" d="M 278.5 122 L 279 126.5 L 278 126.5 L 278.5 122 Z " /><path fill="rgb(233,0,254)" stroke="rgb(233,0,254)" stroke-width="1" opacity="1" d="M 277.5 130 L 278 132.5 L 277 132.5 L 277.5 130 Z " /><path fill="rgb(233,0,254)" stroke="rgb(233,0,254)" stroke-width="1" opacity="1" d="M 288.5 130 L 289 132.5 L 288 132.5 L 288.5 130 Z " /><path fill="rgb(233,0,254)" stroke="rgb(233,0,254)" stroke-width="1" opacity="1" d="M 287.5 136 L 288 138.5 L 287 138.5 L 287.5 136 Z " /><path fill="rgb(233,0,254)" stroke="rgb(233,0,254)" stroke-width="1" opacity="1" d="M 286.5 140 L 287 142.5 L 286 142.5 L 286.5 140 Z " /><path fill="rgb(233,0,254)" stroke="rgb(233,0,254)" stroke-width="1" opacity="1" d="M 259.5 143 L 258.5 145 L 259.5 143 Z " /><path fill="rgb(233,0,254)" stroke="rgb(233,0,254)" stroke-width="1" opacity="1" d="M 276.5 143 L 275 145.5 L 274.5 148 L 274 144 L 276.5 143 Z " /><path fill="rgb(233,0,254)" stroke="rgb(233,0,254)" stroke-width="1" opacity="1" d="M 465.5 143 L 464.5 145 L 465.5 143 Z " /><path fill="rgb(233,0,254)" stroke="rgb(233,0,254)" stroke-width="1" opacity="1" d="M 284.5 146 Q 287.5 145.1 286 149.5 L 285 149.5 L 284.5 146 Z " /><path fill="rgb(233,0,254)" stroke="rgb(233,0,254)" stroke-width="1" opacity="1" d="M 159.5 147 L 160.5 149 L 159.5 147 Z " /><path fill="rgb(233,0,254)" stroke="rgb(233,0,254)" stroke-width="1" opacity="1" d="M 277.5 147 L 279.5 148 Q 280.8 145.8 282 148.5 L 276.5 149 L 277.5 147 Z " /><path fill="rgb(233,0,254)" stroke="rgb(233,0,254)" stroke-width="1" opacity="1" d="M 164.5 152 L 165.5 154 L 164.5 152 Z " /><path fill="rgb(233,0,254)" stroke="rgb(233,0,254)" stroke-width="1" opacity="1" d="M 166.5 158 L 165.5 160 L 166.5 158 Z " /><path fill="rgb(233,0,254)" stroke="rgb(233,0,254)" stroke-width="1" opacity="1" d="M 456.5 158 L 455.5 160 L 456.5 158 Z " /><path fill="rgb(233,0,254)" stroke="rgb(233,0,254)" stroke-width="1" opacity="1" d="M 456.5 165 L 455.5 167 L 456.5 165 Z " /><path fill="rgb(233,0,254)" stroke="rgb(233,0,254)" stroke-width="1" opacity="1" d="M 168.5 176 L 167.5 178 L 168.5 176 Z " /><path fill="rgb(233,0,254)" stroke="rgb(233,0,254)" stroke-width="1" opacity="1" d="M 447.5 177 L 448.5 179 L 447.5 177 Z " /><path fill="rgb(233,0,254)" stroke="rgb(233,0,254)" stroke-width="1" opacity="1" d="M 443.5 182 L 446 182.5 Q 443.9 185.8 443.5 182 Z " /><path fill="rgb(233,0,254)" stroke="rgb(233,0,254)" stroke-width="1" opacity="1" d="M 440.5 184 L 439.5 186 L 440.5 184 Z " /><path fill="rgb(233,0,254)" stroke="rgb(233,0,254)" stroke-width="1" opacity="1" d="M 71.5 187 L 73 189.5 L 71 190 L 71.5 187 Z " /><path fill="rgb(233,0,254)" stroke="rgb(233,0,254)" stroke-width="1" opacity="1" d="M 240.5 200 L 243 200.5 L 240.5 201 L 240.5 200 Z " /><path fill="rgb(233,0,254)" stroke="rgb(233,0,254)" stroke-width="1" opacity="1" d="M 361.5 202 L 364 202.5 L 361.5 203 L 361.5 202 Z " /><path fill="rgb(233,0,254)" stroke="rgb(233,0,254)" stroke-width="1" opacity="1" d="M 141.5 203 L 144 203.5 L 141.5 204 L 141.5 203 Z " /><path fill="rgb(233,0,254)" stroke="rgb(233,0,254)" stroke-width="1" opacity="1" d="M 48.5 205 L 51 206.5 L 49.5 207 L 48.5 205 Z " /><path fill="rgb(233,0,254)" stroke="rgb(233,0,254)" stroke-width="1" opacity="1" d="M 62.5 206 L 65 206.5 L 62.5 207 L 62.5 206 Z " /><path fill="rgb(233,0,254)" stroke="rgb(233,0,254)" stroke-width="1" opacity="1" d="M 304.5 224 L 307 224.5 L 304.5 225 L 304.5 224 Z " /><path fill="rgb(233,0,254)" stroke="rgb(233,0,254)" stroke-width="1" opacity="1" d="M 415.5 226 L 418 226.5 L 415.5 227 L 415.5 226 Z " /><path fill="rgb(234,0,255)" stroke="rgb(234,0,255)" stroke-width="1" opacity="1" d="M 228 6 Q 231.3 4.7 230 9.5 L 231 14.5 L 227.5 18 L 216 22 Q 214.8 25 218.5 24 Q 236.9 29.6 248 42.5 Q 247.3 44.8 249.5 44 L 253 50 L 256 51.5 Q 265.2 65.3 270 83.5 L 272 93.5 L 272 114.5 L 269 127.5 L 261 143 L 258 144.5 L 255 149.5 L 261.5 152 L 309.5 159 L 320.5 162 L 322.5 162 L 329.5 162 L 344.5 166 L 346.5 166 L 359.5 167 L 370.5 170 L 383.5 171 L 400.5 175 L 413.5 176 L 418 179.5 L 421 193.5 L 421 195.5 Q 422 209.8 428 218 L 439 219.5 L 426.5 223 L 420.5 223 L 416 222 L 416 220 Q 413.3 221.1 414 218.5 L 408 198.5 L 408 196.5 L 407 193.5 L 407 191.5 L 406 187 L 390.5 184 L 378.5 183 L 367.5 180 L 365.5 180 Q 352.2 180.3 343.5 176 L 341.5 176 L 328.5 175 L 319.5 172 L 317.5 172 L 304.5 171 L 286.5 167 L 279.5 167 L 274.5 165 L 272.5 165 L 255.5 162 L 248.5 162 L 244.5 160 L 242.5 160 L 226.5 167 L 215.5 169 L 200.5 169 L 197.5 168 L 188.5 167 L 186.5 165 L 184.5 165 L 178.5 162 L 167 177.5 L 165 183 Q 162.3 181.9 163 184.5 L 159.5 190 L 158 190.5 Q 160.5 192 157 193.5 L 151.5 202 L 148 202.5 L 151.5 204 L 155 202 L 155.5 204 L 157 200 L 175.5 200 L 176.5 201 Q 177.8 198.8 182.5 200 L 184.5 200 L 204.5 200 L 205.5 201 L 206.5 200 L 218.5 200 L 220.5 200 L 222.5 201 L 224.5 200 L 228.5 200 L 230.5 201 L 232.5 200 L 236.5 200 L 239.5 201 L 404 201 L 406 206.5 L 405 208.5 L 408 213.5 L 408 217.5 L 410 223 L 415 226.5 L 413.5 226 L 411.5 227 L 409.5 226 L 408.5 227 L 308.5 227 L 309 225.5 L 308.5 224 L 306.5 224 L 304 224.5 L 305.5 227 L 45.5 227 L 44.5 228 L 44 225.5 L 44 200.5 L 44.5 200 L 131.5 200 L 144.5 204 L 144.5 203 L 142 202.5 L 148 201.5 L 125.5 192 L 123.5 192 L 93.5 180 L 84.5 179 L 77 181 L 72.5 189 L 72 184.5 L 78 170.5 L 80.5 168 L 87.5 166 L 93.5 169 L 95.5 169 L 146.5 187 L 150 181 L 152 181 L 152 178 Q 154.7 179.1 154 176.5 L 168 156.5 L 164.5 152 L 161 149.5 L 159.5 147 L 157 145.5 Q 152.4 142.2 152 136 Q 149.3 137.1 150 134.5 L 147 130.5 L 139 109.5 L 138 98.5 L 137 97.5 L 137 77.5 Q 141.6 49.6 160.5 36 L 172.5 29 L 174 29.5 Q 173.2 26.9 176.5 28 L 183.5 25 Q 185 27.5 186.5 24 L 189.5 24 L 191.5 22 L 194.5 22 L 207.5 17 Q 209 19.5 210.5 16 Q 221.8 14.3 228 7.5 L 228 6 Z M 199 31 L 195 32 L 193 32 L 192 34 L 186 36 L 176 43 L 167 57 L 165 63 L 163 73 L 163 90 L 163 92 L 166 105 L 168 108 L 168 112 L 174 124 L 180 132 L 182 135 L 198 148 L 206 152 L 214 154 L 229 154 L 234 153 L 243 149 L 251 143 Q 250 140 253 141 L 260 131 L 265 115 L 265 93 L 263 84 L 256 65 L 250 57 Q 251 53 249 54 L 246 51 Q 247 48 245 49 L 243 46 L 240 45 L 238 42 Q 237 39 236 41 L 234 39 L 233 39 L 222 32 L 217 31 L 199 31 Z M 362 202 L 362 203 L 364 203 L 362 202 Z M 63 206 L 63 207 L 65 207 L 63 206 Z " /><path fill="rgb(234,0,255)" stroke="rgb(234,0,255)" stroke-width="1" opacity="1" d="M 219.5 44 L 223.5 44 L 227 46 L 229 52.5 L 226.5 56 Q 218.5 57.5 217 52.5 L 217 50.5 Q 216.4 45.4 219.5 44 Z " /><path fill="rgb(234,0,255)" stroke="rgb(234,0,255)" stroke-width="1" opacity="1" d="M 198.5 47 L 205 48 L 207 55.5 L 201.5 60 L 197 57.5 Q 194.2 55.8 195 50.5 L 196 48 L 198.5 47 Z " /><path fill="rgb(234,0,255)" stroke="rgb(234,0,255)" stroke-width="1" opacity="1" d="M 352.5 68 L 357 69 L 353 91 L 370 94 Q 372.2 99.6 366.5 98 L 359.5 96 L 352 96 L 343 146.5 L 344 150.5 L 348.5 155 L 358.5 157 L 363.5 156 L 362.5 158 Q 357.5 161 348.5 160 L 339.5 158 L 334 152.5 Q 330.9 148.1 332 139.5 L 335 127.5 L 335 125.5 L 338 111.5 L 339 99.5 L 341 93.5 L 339.5 92 L 331 92 Q 330 88.2 332.5 87 L 342 88 L 343 77.5 L 348.5 71 L 352.5 68 Z " /><path fill="rgb(234,0,255)" stroke="rgb(234,0,255)" stroke-width="1" opacity="1" d="M 393.5 75 Q 400.8 73.8 402 78.5 L 401.5 80 Q 404.5 79.5 403 86.5 L 396.5 90 L 391 86.5 Q 393.5 85 390 83.5 Q 388.8 76.3 393.5 75 Z " /><path fill="rgb(234,0,255)" stroke="rgb(234,0,255)" stroke-width="1" opacity="1" d="M 276.5 80 L 279.5 81 Q 281 78.5 282.5 82 L 285.5 83 L 288.5 82 L 290.5 84 L 294 86.5 Q 293.3 89.1 296 88 L 296 91.5 L 297 91.5 L 298.5 89 L 307 87.5 L 304 86.5 L 310.5 85 L 312.5 85 Q 316.7 88.7 324 88 L 325 93 L 327 93.5 L 325.5 97 L 324.5 96 L 322 97.5 L 321.5 96 L 320 96.5 L 317.5 93 L 312.5 91 Q 310.8 93.8 304.5 92 L 303 91.5 Q 303.9 94.5 299.5 93 L 295 96.5 L 293 99.5 L 294 102.5 L 294 106.5 L 292 108.5 L 293 110.5 L 291 117.5 L 291 123.5 L 288 132.5 L 288 134.5 L 286 142.5 L 286.5 144 L 285 144.5 L 285.5 146 L 284 146.5 L 285 150 L 280.5 147 L 278.5 148 L 276.5 148 Q 273.9 148.8 275 145.5 L 275 143.5 L 278 130.5 L 278 128.5 L 281 114.5 L 281 112.5 L 282 109.5 L 282 107.5 L 284 86 Q 281 87.3 282 83.5 L 276.5 81 L 276.5 80 Z " /><path fill="rgb(234,0,255)" stroke="rgb(234,0,255)" stroke-width="1" opacity="1" d="M 111.5 90 Q 124.8 88.8 129 96.5 L 130 98.5 Q 127.5 100 131 101.5 Q 132.1 104.8 129.5 104 L 127 100 L 118.5 95 L 109.5 95 Q 98.5 97 93 104.5 L 92 111.5 L 95 115.5 L 94.5 117 L 103 120 L 103.5 122 L 106.5 121 L 111.5 123 Q 113.3 120.3 119.5 122 L 134.5 125 L 143 131.5 Q 146.4 136.6 145 146.5 L 144 150 Q 141 148.8 142 152.5 Q 138.2 159 130 160 Q 131.3 163.3 126.5 162 L 114.5 166 L 104 166 Q 105.3 163 101.5 164 L 98 161.5 L 94 152 L 96 152 Q 94.9 154.7 97.5 154 L 104.5 160 L 111.5 162 L 125.5 158 L 134 152 L 135 143.5 L 133 140.5 L 133.5 139 L 127.5 135 L 118.5 133 L 97.5 132 L 87 126.5 L 86 123 Q 83.3 124.1 84 121.5 L 82 118.5 L 82 108 L 84 107.5 L 83 105.5 L 86 101 L 88 101 Q 86.9 98.3 89.5 99 L 92 98 L 92 96 Q 97.2 97.7 96 94 Q 102.3 95.5 101.5 92 L 105.5 92 L 111.5 90 Z " /><path fill="rgb(234,0,255)" stroke="rgb(234,0,255)" stroke-width="1" opacity="1" d="M 377.5 96 Q 378.8 98.3 383.5 97 L 386.5 99 L 388.5 99 L 397 101 Q 400.8 104.7 399 115.5 L 396 123.5 L 396 125.5 L 395 128.5 L 395 130.5 L 395 136.5 L 389 167 L 384 167 Q 385.1 164.3 382.5 165 L 380.5 166 L 377 165 L 380 153.5 L 382 137.5 L 384 132.5 L 384 130.5 L 387 113.5 L 387 103.5 L 386 101 L 376 97.5 L 377.5 96 Z " /><path fill="rgb(234,0,255)" stroke="rgb(234,0,255)" stroke-width="1" opacity="1" d="M 485 100 L 494 105.5 L 491.5 109 L 490 108.5 L 491 110.5 L 477 134 Q 474 132.8 475 136.5 L 464 152.5 L 459 162.5 L 455 166.5 Q 457.5 168 454 169.5 L 447 182 L 445 182.5 Q 447.5 184 444 185.5 L 443 190 Q 439.3 191.5 440 188.5 L 439 186.5 L 442 181.5 L 443 177.5 L 469.5 130 L 471 129.5 L 471 127.5 L 477 116.5 L 477 114 Q 479.7 115.1 479 112.5 L 485 100 Z " /><path fill="rgb(234,0,255)" stroke="rgb(234,0,255)" stroke-width="1" opacity="1" d="M 408.5 101 L 423.5 104 L 427 107.5 L 428 111 L 436.5 107 L 447.5 106 L 456 110.5 L 458 113.5 L 460 116.5 L 453 119 Q 454.1 116.3 451.5 117 L 447.5 114 L 437.5 113 L 432.5 114 L 426 119.5 L 427 121.5 L 425 127.5 L 425 133.5 L 421 149.5 L 421 156.5 L 419 161.5 L 418 171 L 406 169 L 412 138.5 L 412 132.5 L 415 122.5 L 416 109.5 L 414 105 Q 409.1 104.2 408.5 101 Z " /><path fill="rgb(234,0,255)" stroke="rgb(234,0,255)" stroke-width="1" opacity="1" d="M 434.5 195 L 440 197.5 L 442 202.5 L 440 208 L 436.5 209 L 434.5 209 L 431 206.5 L 429 202.5 L 432.5 196 L 434.5 195 Z " /></svg>